<svg xmlns="http://www.w3.org/2000/svg" viewBox="0 0 1200 675" role="img" aria-labelledby="title desc">
  <title id="title">Interface e bastidores de UX gamer</title>
  <desc id="desc">Wireframes, botões, diagramas de feedback e elementos de interface para jogos.</desc>
  <defs>
    <linearGradient id="bg" x1="0" x2="1" y1="0" y2="1">
      <stop offset="0" stop-color="#080b10"/>
      <stop offset=".5" stop-color="#111722"/>
      <stop offset="1" stop-color="#091528"/>
    </linearGradient>
  </defs>
  <rect width="1200" height="675" fill="url(#bg)"/>
  <rect x="96" y="78" width="1008" height="520" rx="18" fill="#0d1118" stroke="#f7f8fa" stroke-opacity=".13" stroke-width="4"/>
  <rect x="132" y="118" width="318" height="196" rx="10" fill="#111722" stroke="#2979ff" stroke-opacity=".35"/>
  <rect x="480" y="118" width="250" height="196" rx="10" fill="#111722" stroke="#ef233c" stroke-opacity=".35"/>
  <rect x="760" y="118" width="308" height="196" rx="10" fill="#111722" stroke="#f7f8fa" stroke-opacity=".13"/>
  <rect x="132" y="346" width="446" height="202" rx="10" fill="#111722" stroke="#f7f8fa" stroke-opacity=".13"/>
  <rect x="614" y="346" width="454" height="202" rx="10" fill="#111722" stroke="#2979ff" stroke-opacity=".25"/>
  <path d="M174 162h232M174 205h160M174 248h206" stroke="#a7b0be" stroke-width="12" stroke-linecap="round"/>
  <rect x="520" y="166" width="170" height="48" rx="8" fill="#ef233c"/>
  <rect x="520" y="238" width="126" height="34" rx="7" fill="#2979ff"/>
  <path d="M808 162h210M808 206h210M808 250h130" stroke="#a7b0be" stroke-width="10" stroke-linecap="round"/>
  <circle cx="702" cy="447" r="54" fill="#090b10" stroke="#2979ff" stroke-width="8"/>
  <path d="M702 393v108M648 447h108" stroke="#f7f8fa" stroke-width="9" stroke-linecap="round"/>
  <path d="M786 447h170" stroke="#ef233c" stroke-width="10" stroke-linecap="round"/>
  <path d="M930 414l38 33-38 33" fill="none" stroke="#ef233c" stroke-width="10" stroke-linecap="round" stroke-linejoin="round"/>
  <path d="M184 416h320M184 460h244M184 504h300" stroke="#a7b0be" stroke-width="11" stroke-linecap="round"/>
  <text x="157" y="642" fill="#a7b0be" font-family="Arial, sans-serif" font-size="25" letter-spacing="7">FEEDBACK • MICROINTERACTION • UX</text>
</svg>
